<?xml version="1.0" encoding="UTF-8" standalone="no"?>
<!-- Created with Inkscape (http://www.inkscape.org/) -->

<svg
   xmlns:dc="http://purl.org/dc/elements/1.1/"
   xmlns:cc="http://creativecommons.org/ns#"
   xmlns:rdf="http://www.w3.org/1999/02/22-rdf-syntax-ns#"
   xmlns:svg="http://www.w3.org/2000/svg"
   xmlns="http://www.w3.org/2000/svg"
   xmlns:sodipodi="http://sodipodi.sourceforge.net/DTD/sodipodi-0.dtd"
   xmlns:inkscape="http://www.inkscape.org/namespaces/inkscape"
   version="1.1"
   id="svg2"
   xml:space="preserve"
   width="500"
   height="500"
   viewBox="0 0 499.99998 500"
   sodipodi:docname="bar-chart.svg"
   inkscape:version="0.92.5 (2060ec1f9f, 2020-04-08)"><metadata
     id="metadata8"><rdf:RDF><cc:Work
         rdf:about=""><dc:format>image/svg+xml</dc:format><dc:type
           rdf:resource="http://purl.org/dc/dcmitype/StillImage" /><dc:title /></cc:Work></rdf:RDF></metadata><defs
     id="defs6"><clipPath
       clipPathUnits="userSpaceOnUse"
       id="clipPath18"><path
         d="M 0,566 H 800 V 0 H 0 Z"
         id="path16"
         inkscape:connector-curvature="0" /></clipPath></defs><sodipodi:namedview
     pagecolor="#ffffff"
     bordercolor="#666666"
     borderopacity="1"
     objecttolerance="10"
     gridtolerance="10"
     guidetolerance="10"
     inkscape:pageopacity="0"
     inkscape:pageshadow="2"
     inkscape:window-width="1366"
     inkscape:window-height="720"
     id="namedview4"
     showgrid="false"
     inkscape:zoom="0.44017392"
     inkscape:cx="-61.46293"
     inkscape:cy="391.90665"
     inkscape:window-x="0"
     inkscape:window-y="24"
     inkscape:window-maximized="1"
     inkscape:current-layer="g10" /><g
     id="g10"
     inkscape:groupmode="layer"
     inkscape:label="bar-chart-flat-vector"
     transform="matrix(1.3333333,0,0,-1.3333333,-249.37839,626.6312)"><g
       id="g12"
       style="fill:#ffffff"
       transform="matrix(0.8783621,0,0,0.9999307,22.750399,0.00658199)"><g
         id="g14"
         clip-path="url(#clipPath18)"
         style="fill:#ffffff"><g
           id="g20"
           transform="translate(342.2954,194.2187)"
           style="fill:#ffffff"><path
             d="m 0,0 c 0,-11.906 -9.652,-21.558 -21.558,-21.558 h -34.514 c -11.906,0 -21.558,9.652 -21.558,21.558 v 86.162 c 0,11.907 9.652,21.558 21.558,21.558 h 34.514 C -9.652,107.72 0,98.069 0,86.162 Z"
             style="fill:#ffffff;fill-opacity:1;fill-rule:nonzero;stroke:none"
             id="path22"
             inkscape:connector-curvature="0" /></g><g
           id="g24"
           transform="translate(445.6953,194.2187)"
           style="fill:#ffffff"><path
             d="m 0,0 c 0,-11.906 -9.651,-21.558 -21.559,-21.558 h -34.406 c -11.906,0 -21.557,9.652 -21.557,21.558 v 137.916 c 0,11.906 9.651,21.558 21.557,21.558 h 34.406 C -9.651,159.474 0,149.822 0,137.916 Z"
             style="fill:#ffffff;fill-opacity:1;fill-rule:nonzero;stroke:none"
             id="path26"
             inkscape:connector-curvature="0" /></g><g
           id="g28"
           transform="translate(549.2031,194.2187)"
           style="fill:#ffffff"><path
             d="m 0,0 c 0,-11.906 -9.651,-21.558 -21.559,-21.558 h -34.514 c -11.906,0 -21.558,9.652 -21.558,21.558 v 189.67 c 0,11.906 9.652,21.559 21.558,21.559 h 34.514 C -9.651,211.229 0,201.576 0,189.67 Z"
             style="fill:#ffffff;fill-opacity:1;fill-rule:nonzero;stroke:none"
             id="path30"
             inkscape:connector-curvature="0" /></g><g
           id="g32"
           transform="translate(613.9648,133.7764)"
           style="fill:#ffffff"><path
             d="M 0,0 -38.884,38.885 V 13.446 h -336.293 v 283.892 h 25.935 l -38.804,38.885 -38.885,-38.885 h 25.877 V 13.446 -8.194 -13.077 h 362.17 v -25.726 z"
             style="fill:#ffffff;fill-opacity:1;fill-rule:nonzero;stroke:none"
             id="path34"
             inkscape:connector-curvature="0" /></g></g></g></g></svg>