<?xml version="1.0" encoding="UTF-8" standalone="no"?>
<svg
   xmlns:dc="http://purl.org/dc/elements/1.1/"
   xmlns:cc="http://creativecommons.org/ns#"
   xmlns:rdf="http://www.w3.org/1999/02/22-rdf-syntax-ns#"
   xmlns:svg="http://www.w3.org/2000/svg"
   xmlns="http://www.w3.org/2000/svg"
   xmlns:sodipodi="http://sodipodi.sourceforge.net/DTD/sodipodi-0.dtd"
   xmlns:inkscape="http://www.inkscape.org/namespaces/inkscape"
   version="1.1"
   width="71.9997"
   height="71.9997"
   id="svg12"
   sodipodi:docname="cow.svg"
   inkscape:version="0.92.5 (2060ec1f9f, 2020-04-08)">
  <metadata
     id="metadata18">
    <rdf:RDF>
      <cc:Work
         rdf:about="">
        <dc:format>image/svg+xml</dc:format>
        <dc:type
           rdf:resource="http://purl.org/dc/dcmitype/StillImage" />
        <dc:title></dc:title>
      </cc:Work>
    </rdf:RDF>
  </metadata>
  <defs
     id="defs16" />
  <sodipodi:namedview
     pagecolor="#ffffff"
     bordercolor="#666666"
     borderopacity="1"
     objecttolerance="10"
     gridtolerance="10"
     guidetolerance="10"
     inkscape:pageopacity="0"
     inkscape:pageshadow="2"
     inkscape:window-width="1366"
     inkscape:window-height="720"
     id="namedview14"
     showgrid="false"
     inkscape:zoom="4.6354969"
     inkscape:cx="68.538239"
     inkscape:cy="37.211997"
     inkscape:window-x="0"
     inkscape:window-y="24"
     inkscape:window-maximized="1"
     inkscape:current-layer="Layer1000" />
  <g
     id="Layer1000">
    <g
       id="Layer1001"
       style="fill:#ffffff;stroke:#ffffff;stroke-opacity:1">
      <path
         d="  M21.1421,57.8199 C23.7640,58.0614 23.9365,57.3024 25.1095,57.6819 C26.2825,58.0614 27.6625,58.8893 28.9044,56.6124 C30.1464,54.3355 29.6635,52.8520 31.9749,53.4385 C31.9749,53.4385 35.4165,55.5414 39.1044,51.8757 C39.1044,51.8757 41.4010,47.7462 42.2401,44.4559 C42.2401,44.4559 43.8521,40.7019 43.1897,43.7934 C43.1897,43.7934 41.2243,51.5886 39.9877,53.3773 C38.7511,55.1660 37.0099,57.3156 34.9932,57.5366 C32.9764,57.7575 31.1807,57.4813 30.6005,58.1996 C30.0203,58.9179 29.5783,59.6086 30.0480,60.5755 C30.5176,61.5424 30.5729,62.2331 30.6834,62.7580 C30.7939,63.2829 30.1585,63.5868 32.3410,63.6144 C34.5235,63.6421 36.4573,63.2829 36.7889,64.1393 C37.1204,64.9958 38.1371,66.4603 38.4256,67.2176 C38.7141,67.9749 36.7668,64.9819 35.6489,64.6573 C34.5311,64.3328 31.0693,64.5852 29.7711,64.0443 C28.4729,63.5034 28.0042,62.0610 27.9320,61.1594 C27.8599,60.2579 26.9910,59.0302 26.0448,58.8066 C25.0986,58.5830 24.1180,59.1679 23.6708,59.4947 C23.2235,59.8216 21.2795,60.1141 20.0064,59.7356 C18.7334,59.3571 18.4753,59.4603 17.8732,59.5291 C17.2711,59.5980 15.1035,58.6861 14.5185,58.1701 C13.9336,57.6540 13.2971,56.9486 12.4885,56.9314 C11.6799,56.9142 9.3918,57.2067 9.3058,55.3659 C9.2198,53.5251 9.1167,49.9812 9.7187,47.7275 C10.3208,45.4739 10.8886,45.0094 11.4735,44.5793 C12.0584,44.1492 14.5888,41.3365 15.1814,40.1236 C15.7741,38.9108 16.2978,36.3336 16.3943,35.7409 C16.4908,35.1483 16.9731,30.1867 14.3683,28.0643 C14.3683,28.0643 12.1275,26.5062 10.9013,22.9692 C9.6751,19.4322 7.7180,15.3056 12.6462,15.2349 C12.6462,15.2349 17.5981,15.3056 20.1212,16.4610 C20.1212,16.4610 21.7718,16.7676 21.3002,15.1405 C20.8286,13.5135 17.9046,14.5746 16.7256,14.4803 C15.5466,14.3860 7.5057,14.1030 5.9494,13.6550 C4.3931,13.2070 1.7939,12.6550 1.2384,10.6264 C0.6830,8.5978 1.2867,9.5880 3.6293,9.7812 C5.9718,9.9744 11.5022,9.5639 14.2553,9.2499 C17.0083,8.9359 22.3938,8.6944 23.4564,8.8876 C23.4564,8.8876 27.1754,5.9896 31.8122,5.0478 C31.8122,5.0478 33.0198,4.9271 34.9034,5.4825 C34.9034,5.4825 38.7674,5.7240 41.3273,7.1730 C43.8872,8.6220 47.0025,10.7231 47.0025,10.7231 C47.0025,10.7231 47.3889,11.2543 47.6787,9.8536 C47.9685,8.4530 48.6689,8.2115 49.9730,8.6703 C51.2771,9.1291 53.6679,10.3367 55.4550,11.0370 C57.2421,11.7373 57.8458,12.4860 56.9040,13.4761 C55.9621,14.4663 54.5373,15.3598 54.5373,15.3598 C54.5373,15.3598 58.3530,15.0459 61.4442,17.1469 C61.4442,17.1469 63.6418,18.6925 63.4969,19.8517 C63.3520,21.0109 63.3762,21.0592 63.3762,21.0592 C63.3762,21.0592 66.1534,21.1075 67.6265,21.6388 C69.0997,22.1701 69.8967,22.4599 70.8143,22.8222 C71.7320,23.1844 72.6981,23.5225 72.6981,23.5225 C72.6981,23.5225 70.6936,23.4018 69.5102,22.8222 C68.3269,22.2425 63.4486,21.6871 62.1204,23.0154 C60.7921,24.3436 58.5221,26.7586 56.6384,28.4008 C54.7546,30.0430 51.6876,30.1154 50.3352,29.5841 C50.3352,29.5841 48.0893,29.3668 46.7852,30.2362 C46.7852,30.2362 45.9399,30.5742 47.1716,29.3668 C48.4032,28.1593 49.2726,27.6763 49.9005,25.3579 C50.5284,23.0395 50.2145,21.6388 50.5284,20.7936 C50.8424,19.9483 51.7842,18.9582 54.1026,18.8133 C56.4210,18.6683 61.5167,18.5476 58.6669,21.1800 C55.8172,23.8123 51.6152,27.6763 51.6152,27.6763 C51.6152,27.6763 50.5525,29.2943 52.7985,28.8838 C55.0444,28.4732 58.1357,26.0099 58.7877,25.1647 C59.4397,24.3195 62.2653,21.0592 62.4343,19.5136 C62.6034,17.9680 62.4178,19.6270 62.4178,19.6270 C62.4178,19.6270 62.8449,17.2435 58.3047,16.6639 C58.3047,16.6639 54.5856,14.6595 50.5284,17.4126 C50.5284,17.4126 46.8576,20.1174 48.0410,18.5959 C49.2243,17.0745 49.2243,17.0503 48.5964,16.3500 C47.9685,15.6496 45.7226,16.3017 44.6600,16.4949 C43.5974,16.6881 41.3756,16.0118 43.4042,12.4135 C43.4042,12.4135 42.4623,15.5289 44.3460,15.1908 C46.2297,14.8527 47.9927,14.8527 48.6689,13.9350 C49.3451,13.0173 49.3451,12.4135 49.3451,12.4135 C49.3451,12.4135 49.8522,13.6935 51.7359,14.2972 C53.6196,14.9010 54.6621,13.9854 55.2859,12.6067 C55.2859,12.6067 55.5998,11.6408 52.6053,10.5057 C49.6107,9.3706 48.0168,8.5979 48.2825,10.3367 C48.2825,10.3367 49.1519,11.3992 48.4515,11.3992 C47.7512,11.3992 47.5338,10.9163 47.2682,11.0370 C47.0025,11.1577 47.0750,11.8098 46.4712,11.5200 C45.8675,11.2302 45.5777,10.3608 44.8532,9.7571 C44.1287,9.1533 41.8828,7.7284 40.1681,7.6077 C38.4534,7.4869 37.0286,8.0907 37.0286,8.0907 C37.0286,8.0907 34.7343,8.8394 32.7299,7.5353 C30.7255,6.2312 28.2863,6.6176 26.4992,7.7043 C24.7122,8.7910 22.3455,10.9886 21.9832,12.7758 C21.9832,12.7758 22.3213,10.2400 20.4376,10.0951 C18.5539,9.9503 13.1685,10.0227 11.0191,10.2883 C8.8698,10.5540 2.8233,10.3912 1.9388,10.0951 C1.0542,9.7991 2.1078,12.4136 5.4647,12.6792 C5.4647,12.6792 9.3770,13.1622 15.8250,12.2686 C15.8250,12.2686 20.3652,11.7856 21.2587,13.9833 C21.2587,13.9833 22.2730,13.0414 22.0073,14.4180 C21.7417,15.7945 20.9448,18.3061 19.8822,19.4653 C18.8196,20.6245 17.0325,24.6334 15.5593,23.6191 C14.0862,22.6048 12.9753,21.0592 12.4440,20.0449 C11.9127,19.0306 11.9127,17.7023 14.7141,18.1612 C17.5155,18.6201 19.3750,19.4653 20.0754,18.2095 C20.0754,18.2095 20.8481,16.8088 17.6362,16.3258 C14.4243,15.8428 9.3528,15.0217 10.0531,17.7748 C10.7535,20.5279 11.4056,24.1021 13.8688,25.9616 C13.8688,25.9616 14.4001,26.7344 15.6076,26.4205 C15.6076,26.4205 18.2400,30.2845 18.0226,32.0474 C17.8053,33.8103 16.5736,38.7610 15.6559,40.0410 C14.7382,41.3210 11.7436,45.1126 11.5746,45.5472 C11.4055,45.9819 11.1399,46.7306 12.9270,46.7789 C14.7141,46.8272 15.7767,47.2377 16.5495,47.2136 C17.3223,47.1894 22.7077,45.2091 23.1907,47.5517 C23.6737,49.8942 21.7175,54.1445 19.4233,54.6276 C17.1291,55.1106 14.9072,54.2171 15.7525,52.0194 C16.5978,49.8217 17.8777,49.5803 17.8777,49.5803 C17.8777,49.5803 21.0413,47.9864 21.3312,47.7207 C21.6210,47.4550 22.0315,47.5758 22.2247,47.9139 C22.4179,48.2520 22.8043,47.3585 21.9108,47.2136 C21.0172,47.0686 16.9841,47.8656 15.9457,48.4452 C14.9073,49.0248 14.3518,49.8459 14.3518,49.8459 C14.3518,49.8459 14.6658,49.0973 13.6273,48.2762 C12.5889,47.4550 12.0576,47.5516 12.5406,48.1795 C13.0236,48.8075 13.5549,48.6867 12.7821,49.9667 C12.0093,51.2466 10.8259,54.0721 11.0675,51.5605 C11.3090,49.0490 11.3330,47.8415 10.9467,47.4550 C10.5603,47.0686 9.9324,50.0632 10.1256,51.7296 C10.3188,53.3959 9.3528,55.3279 12.1300,56.2939 C13.4137,56.7404 19.5617,57.6743 21.1421,57.8199 Z"
         style="stroke-width:0.5;stroke:#ffffff;stroke-dasharray:none;stroke-linecap:butt;stroke-linejoin:miter;fill-rule:evenodd;fill:#ffffff;stroke-opacity:1"
         id="path2" />
      <path
         d="  M34.1143,29.1997 C34.1143,29.1997 37.3734,27.0842 40.2894,28.0562 C43.2053,29.0282 43.9486,29.7429 42.4049,30.1145 C40.8611,30.4862 39.8319,30.7721 38.8885,31.7726 C37.9451,32.7732 36.1441,33.0305 35.2007,32.0013 C34.2573,30.9721 33.2281,29.6571 34.1143,29.1997 Z"
         style="stroke-width:0.5;stroke:#ffffff;stroke-dasharray:none;stroke-linecap:butt;stroke-linejoin:miter;fill-rule:evenodd;fill:#ffffff;stroke-opacity:1"
         id="path4" />
      <path
         d="  M46.6229,55.5062 C46.6229,55.5062 52.8345,47.9143 53.6871,44.5040 C54.5397,41.0937 54.9050,34.2325 55.2298,32.1214 C55.3093,31.6049 56.9065,43.0815 51.0482,50.4720 C48.4093,53.8011 46.6229,55.5062 46.6229,55.5062 Z"
         style="stroke-width:0.5;stroke:#ffffff;stroke-dasharray:none;stroke-linecap:butt;stroke-linejoin:miter;fill-rule:evenodd;fill:#ffffff;stroke-opacity:1"
         id="path6" />
    </g>
  </g>
</svg>
