<?xml version="1.0" encoding="UTF-8" standalone="no"?>
<!-- Created with Inkscape (http://www.inkscape.org/) -->

<svg
   xmlns:dc="http://purl.org/dc/elements/1.1/"
   xmlns:cc="http://creativecommons.org/ns#"
   xmlns:rdf="http://www.w3.org/1999/02/22-rdf-syntax-ns#"
   xmlns:svg="http://www.w3.org/2000/svg"
   xmlns="http://www.w3.org/2000/svg"
   xmlns:sodipodi="http://sodipodi.sourceforge.net/DTD/sodipodi-0.dtd"
   xmlns:inkscape="http://www.inkscape.org/namespaces/inkscape"
   version="1.1"
   id="svg2"
   xml:space="preserve"
   width="500"
   height="500"
   viewBox="0 0 500.00001 500"
   sodipodi:docname="grass.svg"
   inkscape:version="0.92.5 (2060ec1f9f, 2020-04-08)"><metadata
     id="metadata8"><rdf:RDF><cc:Work
         rdf:about=""><dc:format>image/svg+xml</dc:format><dc:type
           rdf:resource="http://purl.org/dc/dcmitype/StillImage" /><dc:title /></cc:Work></rdf:RDF></metadata><defs
     id="defs6"><clipPath
       clipPathUnits="userSpaceOnUse"
       id="clipPath18"><path
         d="m 336.775,524.886 h 18.985 c 0,0 0,71.526 41.351,111.915 v 0 c 0,0 -62.973,-42.146 -60.336,-111.915"
         id="path16"
         inkscape:connector-curvature="0" /></clipPath><linearGradient
       x1="0"
       y1="0"
       x2="1"
       y2="0"
       gradientUnits="userSpaceOnUse"
       gradientTransform="matrix(-154.1837,-256.60489,-256.60489,154.1837,444.00977,705.67188)"
       spreadMethod="pad"
       id="linearGradient32"><stop
         style="stop-opacity:1;stop-color:#d4de25"
         offset="0"
         id="stop24" /><stop
         style="stop-opacity:1;stop-color:#97c93d"
         offset="0.690002"
         id="stop26" /><stop
         style="stop-opacity:1;stop-color:#53ad47"
         offset="0.990005"
         id="stop28" /><stop
         style="stop-opacity:1;stop-color:#53ad47"
         offset="1"
         id="stop30" /></linearGradient><clipPath
       clipPathUnits="userSpaceOnUse"
       id="clipPath42"><path
         d="m 355.856,524.886 h 18.974 c 0,0 0,71.526 41.361,111.915 v 0 c 0,0 -62.988,-42.146 -60.335,-111.915"
         id="path40"
         inkscape:connector-curvature="0" /></clipPath><linearGradient
       x1="0"
       y1="0"
       x2="1"
       y2="0"
       gradientUnits="userSpaceOnUse"
       gradientTransform="matrix(-154.23573,-256.69147,-256.69147,154.23573,463.09766,705.69775)"
       spreadMethod="pad"
       id="linearGradient56"><stop
         style="stop-opacity:1;stop-color:#d4de25"
         offset="0"
         id="stop48" /><stop
         style="stop-opacity:1;stop-color:#97c93d"
         offset="0.690002"
         id="stop50" /><stop
         style="stop-opacity:1;stop-color:#53ad47"
         offset="0.990005"
         id="stop52" /><stop
         style="stop-opacity:1;stop-color:#53ad47"
         offset="1"
         id="stop54" /></linearGradient><clipPath
       clipPathUnits="userSpaceOnUse"
       id="clipPath66"><path
         d="m 321.724,524.886 h 18.984 c 2.636,69.769 -60.336,111.915 -60.336,111.915 v 0 c 41.352,-40.389 41.352,-111.915 41.352,-111.915"
         id="path64"
         inkscape:connector-curvature="0" /></clipPath><linearGradient
       x1="0"
       y1="0"
       x2="1"
       y2="0"
       gradientUnits="userSpaceOnUse"
       gradientTransform="matrix(149.78055,-259.42758,-259.42758,-149.78055,233.02344,712.49854)"
       spreadMethod="pad"
       id="linearGradient80"><stop
         style="stop-opacity:1;stop-color:#d4de25"
         offset="0"
         id="stop72" /><stop
         style="stop-opacity:1;stop-color:#97c93d"
         offset="0.690002"
         id="stop74" /><stop
         style="stop-opacity:1;stop-color:#53ad47"
         offset="0.990005"
         id="stop76" /><stop
         style="stop-opacity:1;stop-color:#53ad47"
         offset="1"
         id="stop78" /></linearGradient><clipPath
       clipPathUnits="userSpaceOnUse"
       id="clipPath90"><path
         d="m 302.653,524.886 h 18.973 c 2.653,69.769 -60.335,111.915 -60.335,111.915 v 0 c 41.362,-40.389 41.362,-111.915 41.362,-111.915"
         id="path88"
         inkscape:connector-curvature="0" /></clipPath><linearGradient
       x1="0"
       y1="0"
       x2="1"
       y2="0"
       gradientUnits="userSpaceOnUse"
       gradientTransform="matrix(149.83139,-259.51566,-259.51566,-149.83139,213.91064,712.56836)"
       spreadMethod="pad"
       id="linearGradient104"><stop
         style="stop-opacity:1;stop-color:#d4de25"
         offset="0"
         id="stop96" /><stop
         style="stop-opacity:1;stop-color:#97c93d"
         offset="0.690002"
         id="stop98" /><stop
         style="stop-opacity:1;stop-color:#53ad47"
         offset="0.990005"
         id="stop100" /><stop
         style="stop-opacity:1;stop-color:#53ad47"
         offset="1"
         id="stop102" /></linearGradient><clipPath
       clipPathUnits="userSpaceOnUse"
       id="clipPath114"><path
         d="m 369.383,524.886 h 9.423 c 0,0 0,35.526 20.544,55.587 v 0 c 0,0 -31.286,-20.934 -29.967,-55.587"
         id="path112"
         inkscape:connector-curvature="0" /></clipPath><linearGradient
       x1="0"
       y1="0"
       x2="1"
       y2="0"
       gradientUnits="userSpaceOnUse"
       gradientTransform="matrix(-76.60199,-127.48718,-127.48718,76.60199,422.64746,614.69141)"
       spreadMethod="pad"
       id="linearGradient128"><stop
         style="stop-opacity:1;stop-color:#d4de25"
         offset="0"
         id="stop120" /><stop
         style="stop-opacity:1;stop-color:#97c93d"
         offset="0.690002"
         id="stop122" /><stop
         style="stop-opacity:1;stop-color:#53ad47"
         offset="0.990005"
         id="stop124" /><stop
         style="stop-opacity:1;stop-color:#53ad47"
         offset="1"
         id="stop126" /></linearGradient><clipPath
       clipPathUnits="userSpaceOnUse"
       id="clipPath138"><path
         d="m 297.181,524.886 h 9.423 c 1.317,34.653 -29.967,55.587 -29.967,55.587 v 0 c 20.544,-20.061 20.544,-55.587 20.544,-55.587"
         id="path136"
         inkscape:connector-curvature="0" /></clipPath><linearGradient
       x1="0"
       y1="0"
       x2="1"
       y2="0"
       gradientUnits="userSpaceOnUse"
       gradientTransform="matrix(74.417755,-128.89536,-128.89536,-74.41774,253.10449,618.10352)"
       spreadMethod="pad"
       id="linearGradient152"><stop
         style="stop-opacity:1;stop-color:#d4de25"
         offset="0"
         id="stop144" /><stop
         style="stop-opacity:1;stop-color:#97c93d"
         offset="0.690002"
         id="stop146" /><stop
         style="stop-opacity:1;stop-color:#53ad47"
         offset="0.990005"
         id="stop148" /><stop
         style="stop-opacity:1;stop-color:#53ad47"
         offset="1"
         id="stop150" /></linearGradient><clipPath
       clipPathUnits="userSpaceOnUse"
       id="clipPath162"><path
         d="m 358.736,517.711 -0.347,-0.219 c -0.312,-0.184 -0.549,-0.238 -0.951,-0.257 v 0 c -0.897,-0.037 -1.683,-0.109 -3.678,-0.109 v 0 h -0.877 c -1.721,0 -2.49,0.072 -3.458,0.109 v 0 c -0.53,0.019 -0.714,0.073 -1.043,0.312 v 0 l -0.238,0.164 c -0.073,0.055 -0.128,0.073 -0.219,0.073 v 0 c -0.073,0 -0.147,-0.055 -0.183,-0.292 v 0 c -0.036,-0.202 -0.678,-2.562 -0.86,-3.22 v 0 c -0.036,-0.109 0.018,-0.128 0.073,-0.146 v 0 l 0.33,-0.091 c 0.091,-0.02 0.145,0 0.182,0.091 v 0 c 0.257,0.585 0.805,1.866 1.628,2.122 v 0 c 0.714,0.219 2.305,0.219 2.891,0.219 v 0 h 0.458 v -4.701 c 0,-0.348 0,-5.964 -0.055,-6.494 v 0 c -0.019,-0.22 -0.239,-0.44 -0.605,-0.44 v 0 h -1.243 c -0.111,0 -0.128,-0.054 -0.128,-0.182 v 0 -0.349 c 0,-0.108 0.017,-0.182 0.164,-0.182 v 0 c 0.256,0 1.024,0.055 2.78,0.055 v 0 c 1.795,0 2.378,-0.055 2.561,-0.055 v 0 c 0.165,0 0.184,0.055 0.184,0.147 v 0 0.384 c 0,0.128 -0.019,0.182 -0.184,0.182 v 0 h -1.152 c -0.439,0 -0.585,0.274 -0.621,0.732 v 0 c -0.019,0.312 -0.019,5.433 -0.019,5.689 v 0 5.214 h 0.513 c 0.895,0 2.616,-0.036 3.164,-0.312 v 0 c 0.604,-0.291 1.152,-1.7 1.299,-2.047 v 0 c 0.056,-0.128 0.074,-0.147 0.147,-0.128 v 0 l 0.292,0.072 c 0.092,0.019 0.129,0.056 0.11,0.147 v 0 c -0.146,0.805 -0.493,3.073 -0.531,3.293 v 0 c -0.036,0.237 -0.073,0.292 -0.165,0.292 v 0 c -0.073,0 -0.127,-0.018 -0.219,-0.073 m -13.391,0 -0.347,-0.219 c -0.312,-0.184 -0.549,-0.238 -0.951,-0.257 v 0 c -0.898,-0.037 -1.683,-0.109 -3.677,-0.109 v 0 h -0.877 c -1.72,0 -2.49,0.072 -3.459,0.109 v 0 c -0.53,0.019 -0.714,0.073 -1.043,0.312 v 0 l -0.238,0.164 c -0.073,0.055 -0.127,0.073 -0.219,0.073 v 0 c -0.073,0 -0.146,-0.055 -0.182,-0.292 v 0 c -0.038,-0.202 -0.678,-2.562 -0.861,-3.22 v 0 c -0.036,-0.109 0.018,-0.128 0.073,-0.146 v 0 l 0.331,-0.091 c 0.091,-0.02 0.145,0 0.182,0.091 v 0 c 0.256,0.585 0.805,1.866 1.627,2.122 v 0 c 0.714,0.219 2.305,0.219 2.89,0.219 v 0 h 0.458 v -4.701 c 0,-0.348 0,-5.964 -0.054,-6.494 v 0 c -0.018,-0.22 -0.238,-0.44 -0.604,-0.44 v 0 h -1.243 c -0.11,0 -0.13,-0.054 -0.13,-0.182 v 0 -0.349 c 0,-0.108 0.02,-0.182 0.166,-0.182 v 0 c 0.255,0 1.024,0.055 2.78,0.055 v 0 c 1.794,0 2.378,-0.055 2.56,-0.055 v 0 c 0.165,0 0.184,0.055 0.184,0.147 v 0 0.384 c 0,0.128 -0.019,0.182 -0.184,0.182 v 0 h -1.151 c -0.44,0 -0.586,0.274 -0.623,0.732 v 0 c -0.017,0.312 -0.017,5.433 -0.017,5.689 v 0 5.214 h 0.512 c 0.895,0 2.616,-0.036 3.164,-0.312 v 0 c 0.605,-0.291 1.154,-1.7 1.3,-2.047 v 0 c 0.054,-0.128 0.073,-0.147 0.145,-0.128 v 0 l 0.294,0.072 c 0.092,0.019 0.128,0.056 0.109,0.147 v 0 c -0.147,0.805 -0.494,3.073 -0.53,3.293 v 0 c -0.036,0.237 -0.074,0.292 -0.164,0.292 v 0 c -0.075,0 -0.129,-0.018 -0.221,-0.073 m 30.038,-0.585 c -1.537,0 -2.104,0.054 -2.269,0.054 v 0 c -0.091,0 -0.109,-0.036 -0.109,-0.127 v 0 -0.458 c 0,-0.073 0.018,-0.128 0.109,-0.128 v 0 h 0.732 c 0.458,0 0.676,-0.312 0.696,-0.915 v 0 c 0.018,-0.53 0.018,-1.701 0.018,-3.054 v 0 -1.775 c 0,-1.738 0,-3.458 -0.038,-5.269 v 0 c 0,-0.494 -0.31,-0.622 -0.712,-0.622 v 0 h -0.75 c -0.091,0 -0.091,-0.054 -0.091,-0.145 v 0 -0.421 c 0,-0.092 0,-0.147 0.145,-0.147 v 0 c 0.202,0 0.623,0.055 2.287,0.055 v 0 c 1.738,0 2.196,-0.055 2.396,-0.055 v 0 c 0.183,0 0.202,0.037 0.202,0.165 v 0 0.403 c 0,0.091 -0.019,0.145 -0.146,0.145 v 0 H 376.7 c -0.274,0 -0.42,0.33 -0.458,0.714 v 0 c -0.018,0.275 -0.035,2.324 -0.035,3.402 v 0 1.025 c 0.256,0.055 0.439,0.055 0.603,0.055 v 0 c 1.061,0 1.5,-0.494 1.975,-1.061 v 0 c 0.221,-0.256 1.099,-1.573 1.172,-1.702 v 0 c 0.09,-0.146 1.079,-1.883 1.225,-2.103 v 0 c 0.163,-0.239 0.567,-0.861 0.768,-1.043 v 0 c 0.275,0.018 0.951,0.055 1.481,0.055 v 0 c 0.806,0 1.282,-0.055 1.429,-0.055 v 0 c 0.128,0 0.145,0.055 0.145,0.165 v 0 0.403 c 0,0.073 -0.017,0.145 -0.145,0.145 v 0 c -0.513,0 -0.934,0.037 -1.318,0.312 v 0 c -0.348,0.256 -1.519,1.92 -1.611,2.103 v 0 c -0.145,0.239 -1.443,2.104 -1.663,2.342 v 0 c -0.148,0.202 -0.403,0.53 -0.842,0.695 v 0 0.037 c 2.341,0.512 3.384,1.371 3.384,3.659 v 0 c 0,0.676 -0.348,1.499 -0.952,2.084 v 0 c -0.695,0.659 -1.901,1.116 -3.421,1.116 v 0 c -0.329,0 -2.03,-0.054 -3.054,-0.054 m 0.824,-6.44 v 5.178 c 0,0.291 0.091,0.493 0.219,0.585 v 0 c 0.164,0.111 0.402,0.146 0.621,0.146 v 0 c 1.519,0 2.324,-0.274 3.037,-0.841 v 0 c 0.531,-0.439 0.916,-1.244 0.916,-2.086 v 0 c 0,-0.768 -0.642,-3.054 -3.971,-3.054 v 0 c -0.348,0 -0.548,0.017 -0.822,0.072 m -63.333,6.44 c -1.517,0 -2.177,0.054 -2.378,0.054 v 0 c -0.109,0 -0.127,-0.036 -0.127,-0.127 v 0 -0.403 c 0,-0.09 0.018,-0.183 0.127,-0.183 v 0 h 0.861 c 0.548,0 0.639,-0.183 0.675,-0.658 v 0 c 0.02,-0.33 0.056,-2.269 0.056,-3.439 v 0 -1.025 c 0,-1.115 -0.056,-5.671 -0.056,-6.018 v 0 c 0,-0.238 -0.109,-0.495 -0.786,-0.495 v 0 h -0.877 c -0.11,0 -0.129,-0.036 -0.129,-0.127 v 0 -0.458 c 0,-0.091 0.019,-0.128 0.147,-0.128 v 0 c 0.237,0 0.896,0.055 2.34,0.055 v 0 c 1.959,0 7.227,-0.018 7.702,-0.055 v 0 c 0.111,0.494 0.842,3.513 0.897,3.64 v 0 c 0.018,0.111 0.018,0.129 -0.037,0.165 v 0 l -0.292,0.11 c -0.073,0.037 -0.109,0 -0.147,-0.073 v 0 c -0.256,-0.714 -1.353,-2.909 -2.433,-3.074 v 0 c -0.568,-0.073 -4.188,-0.036 -4.591,0 v 0 c -0.055,0.751 -0.055,4.702 -0.055,5.013 v 0 1.573 c 0,1.281 0.055,4.043 0.055,4.281 v 0 c 0,0.53 0.073,0.713 0.639,0.713 v 0 h 1.098 c 0.146,0 0.183,0.055 0.183,0.146 v 0 0.421 c 0,0.092 -0.018,0.146 -0.164,0.146 v 0 c -0.165,0 -0.934,-0.054 -2.708,-0.054 m -9.732,0 c -1.152,0 -1.994,0.054 -2.158,0.054 v 0 c -0.092,0 -0.11,-0.036 -0.11,-0.127 v 0 -0.422 c 0,-0.109 0.018,-0.164 0.09,-0.164 v 0 h 0.477 c 0.458,0 0.585,-0.201 0.585,-0.42 v 0 c 0,-0.256 -0.109,-0.586 -0.255,-1.043 v 0 c -0.275,-0.805 -0.97,-2.909 -1.153,-3.403 v 0 c -0.147,-0.42 -1.573,-4.189 -1.958,-5.049 v 0 h -0.036 c -0.422,1.116 -1.482,4.263 -1.701,4.958 v 0 c -0.33,1.024 -1.007,3.201 -1.117,3.859 v 0 c -0.054,0.256 -0.072,0.476 -0.072,0.623 v 0 c 0,0.311 0.255,0.475 0.767,0.475 v 0 h 0.879 c 0.128,0 0.146,0.074 0.146,0.164 v 0 0.422 c 0,0.073 -0.018,0.127 -0.183,0.127 v 0 c -0.164,0 -0.987,-0.054 -2.525,-0.054 v 0 c -1.426,0 -2.03,0.054 -2.213,0.054 v 0 c -0.11,0 -0.128,-0.036 -0.128,-0.127 v 0 -0.458 c 0,-0.073 0.018,-0.128 0.091,-0.128 v 0 h 0.476 c 0.384,0 0.567,-0.183 0.75,-0.603 v 0 c 0.238,-0.549 1.097,-3.202 1.537,-4.501 v 0 l 0.183,-0.622 c 0.238,-0.659 1.719,-4.829 2.305,-6.512 v 0 c 0.092,-0.238 0.165,-0.421 0.31,-0.421 v 0 c 0.092,0 0.184,0.092 0.257,0.238 v 0 c 0.092,0.183 2.452,6 2.671,6.604 v 0 c 0.312,0.768 1.774,4.518 2.25,5.104 v 0 c 0.348,0.421 0.695,0.713 1.299,0.713 v 0 h 0.494 c 0.11,0 0.128,0.055 0.128,0.128 v 0 0.458 c 0,0.091 -0.018,0.127 -0.128,0.127 v 0 c -0.166,0 -0.623,-0.054 -1.958,-0.054 m 66.204,0 c -1.81,0 -3.621,-0.018 -5.433,-0.018 v 0 h -0.804 c -1.207,0 -1.848,0.054 -2.25,0.054 v 0 c -0.092,0 -0.128,-0.036 -0.128,-0.091 v 0 -0.476 c 0,-0.109 0.054,-0.128 0.145,-0.128 v 0 h 0.659 c 0.678,0 0.861,-0.128 0.934,-0.713 v 0 c 0.018,-0.183 0.054,-2.47 0.054,-3.988 v 0 -1.793 -4.335 c 0,-0.678 -0.074,-0.806 -0.915,-0.806 v 0 h -0.732 c -0.128,0 -0.183,-0.018 -0.183,-0.09 v 0 -0.495 c 0,-0.091 0.055,-0.128 0.166,-0.128 v 0 c 0.328,0 0.968,0.055 2.341,0.055 v 0 c 5.688,0 7.135,-0.055 7.317,-0.055 v 0 c 0.219,0 0.348,0.11 0.403,0.274 v 0 l 0.969,2.69 c 0.055,0.146 0.055,0.201 -0.037,0.256 v 0 l -0.292,0.164 c -0.11,0.055 -0.164,-0.017 -0.22,-0.109 v 0 c -0.256,-0.421 -1.281,-1.738 -1.5,-1.922 v 0 c -0.475,-0.401 -1.28,-0.603 -1.591,-0.64 v 0 c -0.385,-0.036 -1.299,-0.054 -1.611,-0.054 v 0 c -0.457,0 -0.987,0.054 -1.353,0.127 v 0 c -0.567,0.11 -1.024,0.477 -1.042,1.428 v 0 c 0,0.366 -0.038,2.14 -0.038,3.128 v 0 1.134 c 0.294,0 1.556,0 2.416,-0.092 v 0 c 0.475,-0.055 0.677,-0.328 0.786,-0.712 v 0 c 0.055,-0.202 0.165,-0.623 0.202,-0.861 v 0 c 0.018,-0.128 0.054,-0.183 0.146,-0.164 v 0 l 0.403,0.054 c 0.072,0.019 0.109,0.055 0.109,0.147 v 0 c -0.037,0.384 -0.109,1.263 -0.109,1.902 v 0 c 0,0.275 0,1.768 0.054,2.08 v 0 c 0.018,0.073 -0.018,0.146 -0.109,0.146 v 0 l -0.457,0.018 c -0.074,0 -0.129,-0.037 -0.129,-0.127 v 0 c -0.018,-0.349 -0.091,-0.711 -0.146,-0.894 v 0 c -0.165,-0.567 -0.311,-0.713 -0.842,-0.802 v 0 c -0.22,-0.037 -2.177,-0.109 -2.324,-0.109 v 0 5.341 l 3.257,-0.073 c 0.493,-0.018 1.006,-0.235 1.39,-0.491 v 0 c 0.44,-0.274 1.793,-2.006 1.831,-2.08 v 0 c 0.017,-0.036 0.09,-0.091 0.145,-0.055 v 0 l 0.274,0.147 c 0.074,0.037 0.074,0.091 0.055,0.165 v 0 c -0.055,0.183 -0.859,2.679 -0.933,2.936 v 0 c -0.018,0.055 -0.054,0.091 -0.146,0.091 v 0 c -0.091,0 -0.438,-0.036 -0.732,-0.036 m -38.763,0 c -1.811,0 -3.623,-0.018 -5.435,-0.018 v 0 h -0.804 c -1.207,0 -1.847,0.054 -2.249,0.054 v 0 c -0.091,0 -0.129,-0.036 -0.129,-0.091 v 0 -0.476 c 0,-0.109 0.056,-0.128 0.148,-0.128 v 0 h 0.657 c 0.677,0 0.86,-0.128 0.933,-0.713 v 0 c 0.018,-0.183 0.056,-2.47 0.056,-3.988 v 0 -1.793 -4.335 c 0,-0.678 -0.073,-0.806 -0.916,-0.806 v 0 h -0.73 c -0.13,0 -0.183,-0.018 -0.183,-0.09 v 0 -0.495 c 0,-0.091 0.053,-0.128 0.164,-0.128 v 0 c 0.329,0 0.969,0.055 2.341,0.055 v 0 c 5.689,0 7.134,-0.055 7.317,-0.055 v 0 c 0.221,0 0.348,0.11 0.403,0.274 v 0 l 0.97,2.69 c 0.054,0.146 0.054,0.201 -0.037,0.256 v 0 l -0.293,0.164 c -0.109,0.055 -0.165,-0.017 -0.22,-0.109 v 0 c -0.255,-0.421 -1.28,-1.738 -1.5,-1.922 v 0 c -0.475,-0.401 -1.28,-0.603 -1.59,-0.64 v 0 c -0.386,-0.036 -1.299,-0.054 -1.611,-0.054 v 0 c -0.458,0 -0.989,0.054 -1.353,0.127 v 0 c -0.568,0.11 -1.026,0.477 -1.043,1.428 v 0 c 0,0.366 -0.036,2.14 -0.036,3.128 v 0 1.134 c 0.291,0 1.554,0 2.414,-0.092 v 0 c 0.475,-0.055 0.676,-0.328 0.785,-0.712 v 0 c 0.056,-0.202 0.166,-0.623 0.203,-0.861 v 0 c 0.019,-0.128 0.055,-0.183 0.145,-0.164 v 0 l 0.404,0.054 c 0.073,0.019 0.109,0.055 0.109,0.147 v 0 c -0.036,0.384 -0.109,1.263 -0.109,1.902 v 0 c 0,0.275 0,1.768 0.055,2.08 v 0 c 0.018,0.073 -0.019,0.146 -0.111,0.146 v 0 l -0.457,0.018 c -0.073,0 -0.127,-0.037 -0.127,-0.127 v 0 c -0.019,-0.349 -0.092,-0.711 -0.148,-0.894 v 0 c -0.164,-0.567 -0.309,-0.713 -0.841,-0.802 v 0 c -0.219,-0.037 -2.177,-0.109 -2.322,-0.109 v 0 5.341 l 3.255,-0.073 c 0.494,-0.018 1.007,-0.235 1.391,-0.491 v 0 c 0.439,-0.274 1.793,-2.006 1.829,-2.08 v 0 c 0.018,-0.036 0.092,-0.091 0.146,-0.055 v 0 l 0.275,0.147 c 0.073,0.037 0.073,0.091 0.054,0.165 v 0 c -0.054,0.183 -0.859,2.679 -0.932,2.936 v 0 c -0.018,0.055 -0.056,0.091 -0.147,0.091 v 0 c -0.091,0 -0.439,-0.036 -0.731,-0.036"
         id="path160"
         inkscape:connector-curvature="0" /></clipPath><linearGradient
       x1="0"
       y1="0"
       x2="1"
       y2="0"
       gradientUnits="userSpaceOnUse"
       gradientTransform="matrix(-16.950836,-29.359711,-29.359711,16.950836,347.23145,525.36426)"
       spreadMethod="pad"
       id="linearGradient176"><stop
         style="stop-opacity:1;stop-color:#d4de25"
         offset="0"
         id="stop168" /><stop
         style="stop-opacity:1;stop-color:#97c93d"
         offset="0.690002"
         id="stop170" /><stop
         style="stop-opacity:1;stop-color:#53ad47"
         offset="0.990005"
         id="stop172" /><stop
         style="stop-opacity:1;stop-color:#53ad47"
         offset="1"
         id="stop174" /></linearGradient><clipPath
       clipPathUnits="userSpaceOnUse"
       id="clipPath186"><path
         d="M 0,792 H 612 V 0 H 0 Z"
         id="path184"
         inkscape:connector-curvature="0" /></clipPath></defs><sodipodi:namedview
     pagecolor="#ffffff"
     bordercolor="#666666"
     borderopacity="1"
     objecttolerance="10"
     gridtolerance="10"
     guidetolerance="10"
     inkscape:pageopacity="0"
     inkscape:pageshadow="2"
     inkscape:window-width="1366"
     inkscape:window-height="720"
     id="namedview4"
     showgrid="false"
     inkscape:zoom="0.6321106"
     inkscape:cx="121.30721"
     inkscape:cy="153.97341"
     inkscape:window-x="0"
     inkscape:window-y="24"
     inkscape:window-maximized="1"
     inkscape:current-layer="g10" /><g
     id="g10"
     inkscape:groupmode="layer"
     inkscape:label="v-grass-letter-green-seeklogo.com"
     transform="matrix(1.3333333,0,0,-1.3333333,-348.38799,1199.8481)"><g
       id="g12"
       style="fill:#ffffff"
       transform="matrix(2.4209168,0,0,3.3507574,-371.27277,-1233.8796)"><g
         id="g14"
         clip-path="url(#clipPath18)"
         style="fill:#ffffff"><g
           id="g20"
           style="fill:#ffffff"><g
             id="g22"
             style="fill:#ffffff"><path
               d="m 336.775,524.886 h 18.985 c 0,0 0,71.526 41.351,111.915 v 0 c 0,0 -62.973,-42.146 -60.336,-111.915"
               style="fill:#ffffff;stroke:none"
               id="path34"
               inkscape:connector-curvature="0" /></g></g></g></g><g
       id="g36"
       style="fill:#ffffff"
       transform="matrix(2.4209168,0,0,3.3507574,-371.27277,-1233.8796)"><g
         id="g38"
         clip-path="url(#clipPath42)"
         style="fill:#ffffff"><g
           id="g44"
           style="fill:#ffffff"><g
             id="g46"
             style="fill:#ffffff"><path
               d="m 355.856,524.886 h 18.974 c 0,0 0,71.526 41.361,111.915 v 0 c 0,0 -62.988,-42.146 -60.335,-111.915"
               style="fill:#ffffff;stroke:none"
               id="path58"
               inkscape:connector-curvature="0" /></g></g></g></g><g
       id="g60"
       style="fill:#ffffff"
       transform="matrix(2.4209168,0,0,3.3507574,-371.27277,-1233.8796)"><g
         id="g62"
         clip-path="url(#clipPath66)"
         style="fill:#ffffff"><g
           id="g68"
           style="fill:#ffffff"><g
             id="g70"
             style="fill:#ffffff"><path
               d="m 321.724,524.886 h 18.984 c 2.636,69.769 -60.336,111.915 -60.336,111.915 v 0 c 41.352,-40.389 41.352,-111.915 41.352,-111.915"
               style="fill:#ffffff;stroke:none"
               id="path82"
               inkscape:connector-curvature="0" /></g></g></g></g><g
       id="g84"
       style="fill:#ffffff"
       transform="matrix(2.4209168,0,0,3.3507574,-371.27277,-1233.8796)"><g
         id="g86"
         clip-path="url(#clipPath90)"
         style="fill:#ffffff"><g
           id="g92"
           style="fill:#ffffff"><g
             id="g94"
             style="fill:#ffffff"><path
               d="m 302.653,524.886 h 18.973 c 2.653,69.769 -60.335,111.915 -60.335,111.915 v 0 c 41.362,-40.389 41.362,-111.915 41.362,-111.915"
               style="fill:#ffffff;stroke:none"
               id="path106"
               inkscape:connector-curvature="0" /></g></g></g></g><g
       id="g108"
       style="fill:#ffffff"
       transform="matrix(2.4209168,0,0,3.3507574,-371.27277,-1233.8796)"><g
         id="g110"
         clip-path="url(#clipPath114)"
         style="fill:#ffffff"><g
           id="g116"
           style="fill:#ffffff"><g
             id="g118"
             style="fill:#ffffff"><path
               d="m 369.383,524.886 h 9.423 c 0,0 0,35.526 20.544,55.587 v 0 c 0,0 -31.286,-20.934 -29.967,-55.587"
               style="fill:#ffffff;stroke:none"
               id="path130"
               inkscape:connector-curvature="0" /></g></g></g></g><g
       id="g132"
       style="fill:#ffffff"
       transform="matrix(2.4209168,0,0,3.3507574,-371.27277,-1233.8796)"><g
         id="g134"
         clip-path="url(#clipPath138)"
         style="fill:#ffffff"><g
           id="g140"
           style="fill:#ffffff"><g
             id="g142"
             style="fill:#ffffff"><path
               d="m 297.181,524.886 h 9.423 c 1.317,34.653 -29.967,55.587 -29.967,55.587 v 0 c 20.544,-20.061 20.544,-55.587 20.544,-55.587"
               style="fill:#ffffff;stroke:none"
               id="path154"
               inkscape:connector-curvature="0" /></g></g></g></g></g></svg>